Coordinates
version=1
nRows=10
nColumns=40
inDegrees=yes

Units are S.I. units (second, meters, Newtons, ...)
Angles are in degrees.

endheader
time	pelvis_tilt	pelvis_list	pelvis_rotation	pelvis_tx	pelvis_ty	pelvis_tz	hip_flexion_r	hip_adduction_r	hip_rotation_r	knee_angle_r	knee_angle_r_beta	ankle_angle_r	subtalar_angle_r	mtp_angle_r	hip_flexion_l	hip_adduction_l	hip_rotation_l	knee_angle_l	knee_angle_l_beta	ankle_angle_l	subtalar_angle_l	mtp_angle_l	lumbar_extension	lumbar_bending	lumbar_rotation	arm_flex_r	arm_add_r	arm_rot_r	elbow_flex_r	pro_sup_r	wrist_flex_r	wrist_dev_r	arm_flex_l	arm_add_l	arm_rot_l	elbow_flex_l	pro_sup_l	wrist_flex_l	wrist_dev_l
     15.76500000	     -4.78548468	     -6.19101516	      5.07232885	      0.97322959	      0.92746699	      0.48817072	     10.01555929	      4.28953712	    -17.60178304	     15.13732491	     15.13732491	     11.90606588	     -2.85637532	     -3.35595404	     41.00736233	    -11.43269536	      5.54977328	     66.26330399	     66.26330399	      2.77589614	    -18.87119901	     12.83589254	    -10.95489646	      4.87680855	      3.90448162	     17.02508283	    -16.57779602	     -2.72829231	     51.72588495	     45.57604409	      0.00000000	      0.00000000	      1.63569165	     -7.58604419	     -1.72133827	     29.57833007	     46.73194122	      0.00000000	      0.00000000
     15.77657143	     -4.91183856	     -6.17341797	      5.29957523	      0.97214478	      0.92769078	      0.48802803	      9.24619880	      4.41665243	    -17.74042367	     14.33960064	     14.33960064	     12.01742583	     -2.55464117	     -3.34407231	     41.95493884	    -11.07921165	      5.28178053	     63.66286050	     63.66286050	      3.50718905	    -18.88199610	     13.50832901	    -10.97832825	      4.84975871	      3.65142024	     19.13134078	    -16.65732870	     -2.70667499	     54.05708351	     45.50160830	      0.00000000	      0.00000000	      0.48857471	     -7.40496812	     -1.51059417	     27.60916496	     46.67395169	      0.00000000	      0.00000000
     15.78814286	     -5.09999531	     -6.06730160	      5.46546261	      0.97109090	      0.92780094	      0.48774656	      8.55374155	      4.42680173	    -17.83993132	     13.58708126	     13.58708126	     12.13493775	     -2.20913790	     -3.36629366	     42.70108933	    -10.57278213	      5.01216810	     60.66990681	     60.66990681	      4.15215048	    -18.84284365	     14.04345096	    -10.95645215	      4.71745727	      3.62874197	     21.06343532	    -16.86714582	     -2.56419614	     56.42448980	     45.42177519	      0.00000000	      0.00000000	     -0.58277869	     -7.21961065	     -1.29889403	     25.94543925	     46.61851261	      0.00000000	      0.00000000
     15.79971429	     -5.31412247	     -5.97768958	      5.60996153	      0.97007860	      0.92773586	      0.48727672	      7.89611902	      4.43038717	    -17.99480144	     12.85870968	     12.85870968	     12.26114679	     -1.76981991	     -3.42726932	     43.26751628	     -9.98815189	      4.89564696	     57.36918510	     57.36918510	      4.71342374	    -18.69887971	     14.31636281	    -10.90520985	      4.63403660	      3.64925677	     22.91407236	    -17.16022594	     -2.29807827	     59.13020593	     45.32663847	      0.00000000	      0.00000000	     -1.66476410	     -7.03175249	     -1.06046896	     24.53652589	     46.55518852	      0.00000000	      0.00000000
     15.81128571	     -5.54247755	     -5.85095292	      5.70341274	      0.96916326	      0.92758651	      0.48669145	      7.26765291	      4.37492321	    -18.10654453	     12.18420134	     12.18420134	     12.41454018	     -1.31212897	     -3.48527313	     43.58891455	     -9.32533696	      4.89430401	     53.73467514	     53.73467514	      5.13924347	    -18.42321770	     14.32941688	    -10.84958825	      4.49515808	      3.74975949	     24.70881558	    -17.41262201	     -2.06333115	     61.69363560	     45.23929842	      0.00000000	      0.00000000	     -2.82681057	     -6.89207066	     -0.85626841	     23.61195413	     46.49245790	      0.00000000	      0.00000000
     15.82285714	     -5.91092128	     -5.88879269	      5.72997136	      0.96818204	      0.92692014	      0.48610318	      6.97642740	      4.44478363	    -18.13239883	     11.83003470	     11.83003470	     12.60697532	     -1.12140092	     -3.55487097	     43.96670971	     -8.82178909	      5.07671667	     49.98213899	     49.98213899	      5.68894600	    -17.66904112	     14.44923675	    -10.51850670	      4.51976376	      4.30365865	     26.72475452	    -17.99691258	     -2.22460623	     63.01177511	     45.21074247	      0.00000000	      0.00000000	     -3.90322488	     -6.65543433	     -0.79404869	     23.18107485	     46.45849510	      0.00000000	      0.00000000
     15.83442857	     -5.99120456	     -5.77949747	      5.75596387	      0.96780409	      0.92658626	      0.48519461	      6.03728137	      4.38562161	    -18.62859157	     10.96761652	     10.96761652	     12.84315968	      0.20472441	     -3.76323669	     43.61462509	     -8.20802508	      5.29384477	     45.80634078	     45.80634078	      5.50629953	    -17.03880209	     12.26735672	    -10.75005899	      4.50913791	      4.51916211	     27.52265689	    -18.90495660	     -0.80019944	     69.15254467	     44.97255090	      0.00000000	      0.00000000	     -5.36847090	     -6.70923290	      0.09102020	     23.31278377	     46.21774689	      0.00000000	      0.00000000
     15.84600000	     -6.14516385	     -5.78240213	      5.74667838	      0.96749515	      0.92593826	      0.48433976	      5.31765618	      4.45068853	    -18.81331627	     10.34599581	     10.34599581	     13.11287167	      0.91137562	     -3.78433952	     43.23582647	     -7.76844264	      5.59634383	     41.60566176	     41.60566176	      5.73804537	    -15.77925215	     11.06547110	    -10.73550401	      4.54992410	      4.72312888	     29.19663218	    -19.13038302	     -0.75306212	     72.09135969	     44.91000966	      0.00000000	      0.00000000	     -6.91880365	     -6.76112817	      1.31398508	     23.77753589	     45.91430407	      0.00000000	      0.00000000
     15.85757143	     -6.30201618	     -5.75939786	      5.66784300	      0.96746507	      0.92511183	      0.48341922	      4.63155132	      4.48668795	    -18.76864343	      9.82135478	      9.82135478	     13.39199863	      1.30825763	     -3.84140154	     42.72563841	     -7.40228431	      5.81193402	     37.50331779	     37.50331779	      6.46785513	    -14.13870175	     11.26968881	    -10.58794224	      4.56757783	      4.86263120	     31.21209041	    -18.97857232	     -0.82270647	     73.78299989	     44.86950195	      0.00000000	      0.00000000	     -8.25221296	     -6.67595682	      1.51680738	     23.49087497	     45.84636514	      0.00000000	      0.00000000
     15.86914286	     -6.40175720	     -5.81836865	      5.56534263	      0.96778688	      0.92411656	      0.48246488	      3.84574922	      4.61064412	    -18.82938409	      9.25209256	      9.25209256	     13.66640389	      1.93184896	     -3.89604664	     42.04948588	     -7.20402228	      5.96764364	     33.54674705	     33.54674705	      7.19379567	    -12.33078773	     11.53685067	    -10.50265434	      4.67101875	      4.91307704	     33.17025131	    -18.81342000	     -0.69565350	     75.90770143	     44.80865137	      0.00000000	      0.00000000	     -9.69831010	     -6.55956914	      1.71456742	     23.53419985	     45.77185926	      0.00000000	      0.00000000
